<?xml version="1.0" encoding="UTF-8"?>
<!DOCTYPE svg PUBLIC "-//W3C//DTD SVG 1.1//EN" "http://www.w3.org/Graphics/SVG/1.1/DTD/svg11.dtd">
<!-- Creator: CorelDRAW -->
<svg xmlns="http://www.w3.org/2000/svg" xml:space="preserve" width="2048px" height="2048px" style="shape-rendering:geometricPrecision; text-rendering:geometricPrecision; image-rendering:optimizeQuality; fill-rule:evenodd; clip-rule:evenodd"
viewBox="0 0 2048 2048"
 xmlns:xlink="http://www.w3.org/1999/xlink">
 <defs>
  <style type="text/css">
   <![CDATA[
    .fil5 {fill:none}
    .fil1 {fill:#202020}
    .fil4 {fill:#353535}
    .fil2 {fill:#B3B4B4}
    .fil3 {fill:#B8B8B8}
    .fil0 {fill:#414141;fill-rule:nonzero}
   ]]>
  </style>
 </defs>
 <g id="Layer_x0020_1">
  <metadata id="CorelCorpID_0Corel-Layer"/>
  <polygon class="fil0" points="256.001,1760.04 704.723,1760.04 704.723,1792 256.001,1792 "/>
  <polygon class="fil0" points="480.003,1056 1568,1056 1568,1087.96 480.003,1087.96 "/>
  <g id="_310529472">
   <polygon id="_310529568" class="fil0" points="299.116,1761.78 457.763,1603.13 480.361,1625.73 321.712,1784.38 "/>
   <polygon id="_310529520" class="fil0" points="661.606,1761.78 502.959,1603.13 480.361,1625.73 639.009,1784.38 "/>
  </g>
  <polygon class="fil0" points="512.36,632 512.36,1792 448.36,1792 448.36,632 "/>
  <polygon class="fil0" points="1343.28,1760.04 1792,1760.04 1792,1792 1343.28,1792 "/>
  <g id="_310529136">
   <polygon id="_310529232" class="fil0" points="1386.4,1761.78 1545.04,1603.13 1567.64,1625.73 1408.99,1784.38 "/>
   <polygon id="_310529184" class="fil0" points="1748.89,1761.78 1590.24,1603.13 1567.64,1625.73 1726.29,1784.38 "/>
  </g>
  <polygon class="fil0" points="1599.64,632 1599.64,1792 1535.64,1792 1535.64,632 "/>
  <g id="_310527744">
   <rect id="_310528944" class="fil1" x="256" y="256.002" width="1536" height="415.999"/>
   <rect id="_310528800" class="fil2" x="295.999" y="296.001" width="1456" height="335.999"/>
   <polygon id="_310528656" class="fil1" points="1632.58,632 1722.43,632 1752,598.633 1752,497.274 "/>
   <polygon id="_310528512" class="fil1" points="1394.32,632 1484.17,632 1752,329.828 1752,296.001 1692.14,296.001 "/>
   <polygon id="_310528368" class="fil1" points="1140.18,632 1230.02,632 1527.84,296.001 1438,296.001 "/>
   <polygon id="_310528224" class="fil1" points="886.034,632 975.878,632 1273.7,296.001 1183.86,296.001 "/>
   <polygon id="_310528080" class="fil1" points="631.889,632 721.733,632 1019.55,296.001 929.708,296.001 "/>
   <polygon id="_310527936" class="fil1" points="377.746,632 467.588,632 765.407,296.001 675.564,296.001 "/>
   <polygon id="_310527768" class="fil1" points="295.999,473.342 295.999,574.702 543.03,296.001 453.186,296.001 "/>
  </g>
  <g id="_310526448">
   <polygon id="_310527576" class="fil3" points="404.957,296.001 1752,296.001 1752,632 1656.64,632 "/>
   <polygon id="_310527432" class="fil4" points="1656.64,632 1722.43,632 1752,598.633 1752,497.275 1637.21,626.783 "/>
   <polygon id="_310527288" class="fil4" points="1517.32,594.599 1752,329.828 1752,296.001 1692.14,296.001 1444.74,575.118 "/>
   <polygon id="_310527144" class="fil4" points="1312.02,539.49 1527.84,296.001 1438,296.001 1239.44,520.009 "/>
   <polygon id="_310527000" class="fil4" points="1106.72,484.381 1273.7,296.001 1183.86,296.001 1034.15,464.9 "/>
   <polygon id="_310526856" class="fil4" points="901.425,429.272 1019.55,296.001 929.708,296.001 828.85,409.79 "/>
   <polygon id="_310526568" class="fil4" points="696.128,374.162 765.407,296.001 675.564,296.001 623.553,354.681 "/>
   <polygon id="_310526520" class="fil4" points="516.493,325.942 543.031,296.001 453.187,296.001 443.916,306.46 "/>
  </g>
  <rect class="fil5" width="2048" height="2048"/>
 </g>
</svg>
