<svg width="530" height="297" viewBox="0 0 530 297" fill="none" xmlns="http://www.w3.org/2000/svg">
<path d="M137.996 103.397H266.318C259.363 84.9349 248.467 68.835 233.628 55.0975C218.79 41.3597 201.752 32.0388 182.515 27.1349L137.996 103.397ZM103.75 134.694L168.218 23.9223C165.29 23.3961 162.004 23.0014 158.359 22.7384C154.714 22.4752 151.428 22.3436 148.5 22.3436C131.082 22.3436 114.851 25.585 99.8081 32.068C84.765 38.5506 71.5054 47.3387 60.0293 58.4322L103.75 134.694ZM26.3196 180.12H114.254L50.4008 69.3509C41.4732 80.3565 34.5652 92.5498 29.6767 105.931C24.7879 119.312 22.3436 133.497 22.3436 148.486C22.3436 154.092 22.6772 159.431 23.3445 164.503C24.0116 169.576 25.0033 174.781 26.3196 180.12ZM114.792 269.865L158.82 193.603H30.6825C37.6368 212.065 48.5843 228.165 63.525 241.903C78.466 255.64 95.5549 264.961 114.792 269.865ZM148.5 274.656C165.918 274.656 182.149 271.415 197.192 264.932C212.235 258.449 225.495 249.661 236.971 238.568L193.25 162.306L129.089 272.77C132.017 273.399 135.185 273.871 138.595 274.185C142.004 274.499 145.306 274.656 148.5 274.656ZM246.599 227.649C254.902 216.951 261.654 204.757 266.855 191.069C272.056 177.381 274.656 163.196 274.656 148.514C274.656 142.908 274.323 137.569 273.655 132.497C272.988 127.424 271.997 122.219 270.68 116.88H182.746L246.599 227.649ZM148.405 297C128.013 297 108.796 293.112 90.7545 285.335C72.7128 277.558 56.965 266.943 43.5112 253.489C30.0572 240.035 19.4419 224.287 11.6653 206.245C3.88843 188.204 0 168.975 0 148.558C0 127.982 3.88843 108.711 11.6653 90.7441C19.4419 72.7775 30.0572 57.0565 43.5112 43.5811C56.965 30.1058 72.7128 19.4734 90.7545 11.6841C108.796 3.89468 128.025 0 148.442 0C169.018 0 188.289 3.89562 206.256 11.6869C224.223 19.4781 239.944 30.1132 253.419 43.5923C266.894 57.0711 277.527 72.7985 285.316 90.7745C293.105 108.75 297 127.992 297 148.5C297 168.955 293.105 188.204 285.316 206.245C277.527 224.287 266.894 240.035 253.419 253.489C239.944 266.943 224.22 277.558 206.249 285.335C188.277 293.112 168.996 297 148.405 297Z" fill="white"/>
<path d="M387.967 297H308V0H395.725C423.873 0 447.943 5.89746 467.934 17.6924C488.026 29.3906 503.393 46.2129 514.035 68.1592C524.777 90.1055 530.098 116.499 529.999 147.34C529.899 178.954 524.23 205.928 512.991 228.261C501.851 250.497 485.688 267.513 464.503 279.308C443.417 291.103 417.905 297 387.967 297ZM317.548 287.719H387.967C416.214 287.719 440.234 282.16 460.027 271.042C479.82 259.827 494.839 243.73 505.083 222.75C515.427 201.771 520.55 176.634 520.45 147.34C520.351 118.433 515.378 93.6826 505.531 73.0898C495.784 52.4971 481.66 36.7383 463.16 25.8135C444.66 14.792 422.182 9.28124 395.725 9.28124H317.548V287.719Z" fill="white"/>
</svg>
