<?xml version="1.0" encoding="UTF-8"?>
<!DOCTYPE svg PUBLIC "-//W3C//DTD SVG 1.1//EN" "http://www.w3.org/Graphics/SVG/1.1/DTD/svg11.dtd">
<!-- Creator: CorelDRAW -->
<svg xmlns="http://www.w3.org/2000/svg" xml:space="preserve" width="2048px" height="2048px" style="shape-rendering:geometricPrecision; text-rendering:geometricPrecision; image-rendering:optimizeQuality; fill-rule:evenodd; clip-rule:evenodd"
viewBox="0 0 2048 2048"
 xmlns:xlink="http://www.w3.org/1999/xlink">
 <defs>
  <style type="text/css">
   <![CDATA[
    .fil14 {fill:none}
    .fil9 {fill:none;fill-rule:nonzero}
    .fil11 {fill:#1A191A}
    .fil8 {fill:#202020}
    .fil10 {fill:#2A2A2A}
    .fil13 {fill:#616161}
    .fil4 {fill:#838383}
    .fil15 {fill:#8B8C8C}
    .fil0 {fill:#8E8E8F}
    .fil3 {fill:#A2A2A2}
    .fil1 {fill:#BEBEBE}
    .fil20 {fill:#DEDEDE}
    .fil12 {fill:#202020;fill-rule:nonzero}
    .fil2 {fill:#414141;fill-rule:nonzero}
    .fil18 {fill:#6D6D6D;fill-rule:nonzero}
    .fil16 {fill:#757575;fill-rule:nonzero}
    .fil19 {fill:#838383;fill-rule:nonzero}
    .fil6 {fill:#898989;fill-rule:nonzero}
    .fil17 {fill:#8E8E8F;fill-rule:nonzero}
    .fil7 {fill:#959595;fill-rule:nonzero}
    .fil5 {fill:#A2A2A2;fill-rule:nonzero}
   ]]>
  </style>
    <clipPath id="id0" style="clip-rule:nonzero">
     <path d="M1666.61 1007.63l94.0394 0 31.3488 0 0 31.7705 0 49.017 0 44.7603 0 126.75 0 26.4059 -25.8378 4.74331 -99.5505 18.2705 0 -301.718z"/>
    </clipPath>
 </defs>
 <g id="Layer_x0020_1">
  <metadata id="CorelCorpID_0Corel-Layer"/>
  <g id="_311510848">
   <rect id="_311515432" class="fil0" x="746.712" y="767.723" width="31.2251" height="39.1842"/>
   <polygon id="_311515360" class="fil1" points="1187.23,998.201 839.616,781 825.048,804.266 1172.66,1021.47 "/>
   <path id="_311515288" class="fil0" d="M822.544 790.495l16.7799 -45.365 77.3233 -0.72756c-15.0732,20.5618 -46.0772,52.343 -69.3249,66.489 -4.2815,2.60669 -9.66969,3.30355 -14.7366,1.42913 -7.35591,-2.72008 -11.7024,-9.99686 -11.0303,-17.4484l0.988583 -4.37717z"/>
   <path id="_311515216" class="fil2" d="M844.589 780.749c-3.34252,-1.23543 -6.8752,-0.996851 -9.88465,0.386221l-0.0165354 0.00826772c-3.00827,1.38425 -5.48977,3.913 -6.7252,7.25552 -1.23662,3.34134 -0.996851,6.87638 0.386221,9.88465l0.00708662 0.0165354c1.38543,3.00827 3.91181,5.48977 7.25552,6.7252 3.34016,1.23543 6.87638,0.998032 9.88465,-0.386221l0.0165354 -0.00590552c3.00827,-1.38662 5.48977,-3.91418 6.7252,-7.25788 1.23543,-3.34016 0.999213,-6.87402 -0.38504,-9.88465l-0.00826772 -0.0165354c-1.38425,-3.00827 -3.913,-5.48977 -7.25552,-6.7252zm-7.12796 6.40158c1.46221,-0.669686 3.1878,-0.780709 4.82599,-0.174803 1.63819,0.605906 2.87481,1.81181 3.54922,3.27284 0.670867,1.46221 0.78189,3.18662 0.175984,4.82481 -0.605906,1.63819 -1.81299,2.87481 -3.27284,3.5504 -1.46221,0.669686 -3.1878,0.780709 -4.82599,0.174803 -1.63701,-0.605906 -2.87362,-1.81181 -3.54922,-3.27284 -0.670867,-1.46221 -0.780709,-3.1878 -0.175984,-4.82481 0.605906,-1.63819 1.81299,-2.87481 3.27284,-3.5504z"/>
   <polygon id="_311515144" class="fil0" points="1354.26,1091.98 1069.32,913.586 1045.04,952.366 1329.98,1130.76 "/>
   <path id="_311515072" class="fil3" d="M1073.81 904.966l-8.44489 -5.28662c-5.00079,-3.1311 -11.6551,-1.60276 -14.7851,3.39922l-23.178 37.0217c-3.1311,5.00079 -1.60039,11.6528 3.4004,14.7839l8.44607 5.28662c5.00079,3.13229 11.6528,1.60276 14.7839,-3.39803l23.1768 -37.0217c3.1311,-4.99961 1.60276,-11.6539 -3.39922,-14.7851z"/>
   <polygon id="_311515000" class="fil1" points="669.304,802.49 478.036,839.578 480.508,852.389 671.776,815.303 "/>
   <path id="_311514928" class="fil4" d="M476.137 850.132l-15.1618 -17.2819 29.7414 -22.7941c-0.0956694,13.0606 -1.09488,21.4181 -0.445276,34.3382 0.120473,2.37874 -0.809056,4.78937 -2.73898,6.48189 -2.80158,2.45906 -6.82678,2.62795 -9.79017,0.660237l-1.60512 -1.40433z"/>
   <path id="_311514856" class="fil2" d="M479.685 837.879c-1.5626,0.65315 -2.71418,1.88032 -3.31299,3.33662l-0.00354331 0.00826772c-0.597638,1.4563 -0.641339,3.13937 0.011811,4.70197 0.65315,1.56378 1.8815,2.71536 3.33662,3.31299l0.00826772 0.00354331c1.4563,0.597638 3.13937,0.641339 4.70315,-0.011811 1.56142,-0.65315 2.71418,-1.8815 3.31181,-3.3378l0.00472441 -0.00708662c0.596457,-1.4563 0.640158,-3.13937 -0.0129921,-4.70315 -0.65315,-1.56142 -1.88032,-2.71418 -3.33662,-3.31299l-0.00826772 -0.00236221c-1.4563,-0.597638 -3.13937,-0.641339 -4.70197,0.011811zm-0.405118 4.53544c0.291733,-0.7063 0.855119,-1.30394 1.62165,-1.62402 0.765355,-0.320079 1.58622,-0.301181 2.29488,-0.011811 0.7063,0.290551 1.30394,0.855119 1.62402,1.62047 0.320079,0.766536 0.301181,1.5874 0.011811,2.29488 -0.290551,0.707481 -0.855119,1.30512 -1.62165,1.6252 -0.765355,0.320079 -1.58622,0.301181 -2.29488,0.011811 -0.7063,-0.291733 -1.30394,-0.8563 -1.62402,-1.62165 -0.320079,-0.765355 -0.301181,-1.5874 -0.011811,-2.29488z"/>
   <polygon id="_311514640" class="fil0" points="757.778,780.987 600.882,811.266 605.002,832.619 761.9,802.34 "/>
   <path id="_311514712" class="fil3" d="M599.651 806.812l-4.64882 0.897638c-2.75433,0.530315 -4.57323,3.21851 -4.04055,5.97284l3.93425 20.3847c0.530315,2.75315 3.21851,4.57087 5.97166,4.04055l4.65 -0.89882c2.75433,-0.530315 4.57205,-3.21851 4.04174,-5.97166l-3.93425 -20.3847c-0.531496,-2.75315 -3.21969,-4.57323 -5.97402,-4.04055z"/>
   <path id="_311514544" class="fil0" d="M554.191 681.18c62.7993,-57.7831 125.499,25.8378 51.3083,67.9264l-233.711 146.417 -31.9914 -30.0225 214.394 -184.321z"/>
   <path id="_311514352" class="fil0" d="M1543.68 916.589l42.3981 120.63 -138.898 0 13.7752 -73.1233 2.49213 1.16929c60.1323,20.504 60.3142,7.15749 80.2323,-48.6756z"/>
   <path id="_311514184" class="fil3" d="M547.267 684.897l-1.72559 12.2894c-0.298819,2.12835 -0.451181,4.27559 -0.451181,6.4252 0,25.2071 20.4177,45.6248 45.6248,45.6248 144.367,0 288.735,-0.220866 433.102,-0.369685l7.19764 -0.00708662 431.973 224.555c18.4146,9.57284 40.4091,14.9563 59.6422,4.49292 6.83859,-3.72166 12.4358,-9.10158 16.5874,-15.6744 4.02756,-6.3756 6.59646,-13.7162 7.50473,-21.1984 1.97008,-16.2425 -3.69803,-32.4532 -16.8414,-42.58l-406.484 -313.158c-5.90434,-4.54725 -12.5563,-8.30906 -19.6902,-10.539 -7.24253,-2.26299 -13.2012,-2.97166 -20.713,-1.80591l-493.356 76.5851c-18.7973,2.91969 -33.9012,13.2555 -40.9548,31.2319 -0.531496,1.35473 -1.00394,2.73189 -1.41614,4.12796z"/>
   <path id="_311514040" class="fil5" d="M715.809 1075.85l85.5166 0 144.306 -125.496 188.243 0 31.3477 0 -0.161811 125.496 225.698 0 0 -17.2453 0 -31.7717 31.3477 0 338.547 0 31.3488 0 0 31.7717 0 49.0158 0 44.7615 0 82.6678 0 26.4059 -25.8378 4.74213 -184.074 33.7843 -24.913 4.57441c-36.6709,6.32008 -624.973,9.93308 -893.669,9.93308l0 -62.6953 20.9528 0 0 -144.174 0 -31.7705 31.3477 0zm146.315 1.91811l271.59 0 0 -95.2808 -167.126 0 -104.464 95.2808z"/>
   <polygon id="_311513920" class="fil6" points="801.325,1075.85 945.631,950.353 1133.87,950.353 1165.22,950.353 1165.06,1075.85 1133.71,1075.85 1133.71,982.487 966.588,982.487 864.227,1075.85 "/>
   <polygon id="_311513752" class="fil7" points="1666.61,1007.63 1760.65,1007.63 1792,1007.63 1792,1039.4 1792,1088.42 1792,1133.18 1792,1259.93 1792,1286.33 1766.16,1291.07 1666.61,1309.35 "/>
   <g style="clip-path:url(#id0)">
    <g>
     <g>
      <rect id="_461670080" class="fil8" transform="matrix(0.858163 -0.399584 0.127439 0.672788 1663.88 1029.23)" width="150.404" height="16.4894"/>
      <rect id="_461649128" class="fil8" transform="matrix(0.858163 -0.399584 0.127439 0.672788 1663.88 1061.69)" width="150.404" height="16.4894"/>
      <rect id="_461673224" class="fil8" transform="matrix(0.858163 -0.399584 0.127439 0.672788 1663.88 1094.15)" width="150.404" height="16.4894"/>
      <rect id="_461656112" class="fil8" transform="matrix(0.858163 -0.399584 0.127439 0.672788 1663.88 1126.6)" width="150.404" height="16.4894"/>
      <rect id="_461676104" class="fil8" transform="matrix(0.858163 -0.399584 0.127439 0.672788 1663.88 1159.06)" width="150.404" height="16.4894"/>
      <rect id="_461676440" class="fil8" transform="matrix(0.858163 -0.399584 0.127439 0.672788 1663.88 1191.52)" width="150.404" height="16.4894"/>
      <rect id="_461673320" class="fil8" transform="matrix(0.858163 -0.399584 0.127439 0.672788 1663.88 1223.98)" width="150.404" height="16.4894"/>
      <rect id="_461646296" class="fil8" transform="matrix(0.858163 -0.399584 0.127439 0.672788 1663.88 1256.43)" width="150.404" height="16.4894"/>
      <rect id="_461673128" class="fil8" transform="matrix(0.858163 -0.399584 0.127439 0.672788 1663.88 1288.89)" width="150.404" height="16.4894"/>
      <rect id="_461669336" class="fil8" transform="matrix(0.858163 -0.399584 0.127439 0.672788 1663.88 1321.35)" width="150.404" height="16.4894"/>
     </g>
    </g>
   </g>
   <polygon class="fil9" points="1666.61,1007.63 1760.65,1007.63 1792,1007.63 1792,1039.4 1792,1088.42 1792,1133.18 1792,1259.93 1792,1286.33 1766.16,1291.07 1666.61,1309.35 "/>
   <path id="_311513680" class="fil10" d="M921.869 1422.66c-89.5229,0 -162.093,-72.5705 -162.093,-162.092 0,-89.5229 72.5705,-162.093 162.093,-162.093 89.5205,0 162.092,72.5705 162.092,162.093 0,89.5217 -72.5717,162.092 -162.092,162.092zm-0.0011811 -81.9024c-44.2878,0 -80.1898,-35.9032 -80.1898,-80.191 0,-44.2878 35.902,-80.1898 80.1898,-80.1898 44.2878,0 80.191,35.902 80.191,80.1898 0,44.2878 -35.9032,80.191 -80.191,80.191z"/>
   <path id="_311513608" class="fil8" d="M921.869 1422.66c-89.5229,0 -162.093,-72.5705 -162.093,-162.092 0,-89.5229 72.5705,-162.093 162.093,-162.093 89.5217,0 162.092,72.5705 162.092,162.093 0,89.5217 -72.5705,162.092 -162.092,162.092zm-0.0011811 -30.9355c-72.4371,0 -131.158,-58.7209 -131.158,-131.158 0,-72.4371 58.7209,-131.158 131.158,-131.158 72.4371,0 131.158,58.7209 131.158,131.158 0,72.4371 -58.7209,131.158 -131.158,131.158z"/>
   <path id="_311513536" class="fil11" d="M921.869 1425.05c-1.47402,0 -2.94213,-0.0212599 -4.4067,-0.0602363l-16.4551 -32.9634c6.79607,1.07008 13.7634,1.6311 20.8606,1.6311 1.43622,0 2.86536,-0.0307087 4.28977,-0.0767717l15.1347 30.3213c-6.37205,0.748819 -12.8504,1.14803 -19.4232,1.14803zm-64.891 -13.3063c-7.35355,-3.15945 -14.4272,-6.83977 -21.1807,-10.9937l2.23347 -36.8209c6.51851,5.2937 13.5461,9.9815 21,13.9819l-2.05276 33.8327zm-66.9095 -52.7563c-4.75158,-6.35434 -9.05788,-13.063 -12.8646,-20.0823l20.3386 -30.7607c3.03189,7.91812 6.79843,15.4701 11.2146,22.5768l-18.6886 28.2662zm-31.5496 -79.1197c-0.740552,-6.33189 -1.13386,-12.7701 -1.13386,-19.3004 0,-1.5189 0.0248032,-3.03071 0.0649607,-4.53898l32.9811 -16.4646c-1.08307,6.84213 -1.65473,13.8555 -1.65473,21.0024 0,1.3937 0.0283465,2.77914 0.0708662,4.16103l-30.3284 15.1406zm12.2067 -84.2705c3.16418,-7.35355 6.84922,-14.4272 11.0079,-21.1795l36.8351 2.23465c-5.30197,6.51615 -9.99804,13.5437 -14.0043,20.9977l-33.8386 -2.05276zm52.7422 -66.8457c6.35552,-4.75158 13.0665,-9.0567 20.0858,-12.8622l30.7642 20.3421c-7.91812,3.02953 -15.4736,6.79489 -22.5827,11.211l-28.2673 -18.691zm79.0571 -31.5296c6.34607,-0.744095 12.7984,-1.13858 19.3441,-1.13858 1.50236,0 3,0.0236221 4.49292,0.0637796l16.461 32.9752c-6.82678,-1.08071 -13.8248,-1.64764 -20.9551,-1.64764 -1.40788,0 -2.8063,0.0295276 -4.20355,0.0732284l-15.1394 -30.326zm84.2233 12.1618c7.35119,3.16063 14.4272,6.83859 21.1807,10.9937l-2.23465 36.8185c-6.51733,-5.2937 -13.5461,-9.9815 -20.9988,-13.9807l2.05276 -33.8315zm66.8575 52.6807c4.75512,6.34961 9.06379,13.0536 12.8752,20.0669l-20.3303 30.7465c-3.03662,-7.91103 -6.80788,-15.4559 -11.2287,-22.5567l18.6839 -28.2567zm31.5933 79.0359c0.753544,6.38504 1.15276,12.8788 1.15276,19.4669 0,1.45866 -0.0212599,2.91142 -0.0590552,4.36063l-32.9575 16.4528c1.06654,-6.78189 1.62402,-13.7327 1.62402,-20.8146 0,-1.44921 -0.0318898,-2.89252 -0.0779528,-4.33111l30.3177 -15.1347zm-12.1134 84.267c-3.15591,7.35119 -6.82914,14.4284 -10.9784,21.1819l-36.8067 -2.23347c5.28662,-6.51969 9.96733,-13.5484 13.9606,-21.0012l33.8244 2.05276zm-52.6949 66.9213c-6.34843,4.7563 -13.0512,9.06497 -20.0634,12.8776l-30.7429 -20.3268c7.90985,-3.03898 15.4524,-6.81142 22.5508,-11.2323l28.2555 18.6815z"/>
   <path id="_311513464" class="fil1" d="M921.868 1340.76c-44.2878,0 -80.1898,-35.9032 -80.1898,-80.191 0,-44.2878 35.902,-80.1898 80.1898,-80.1898 44.2878,0 80.191,35.902 80.191,80.1898 0,44.2878 -35.9032,80.191 -80.191,80.191z"/>
   <path id="_311513368" class="fil12" d="M921.868 1350.55c-24.8457,0 -47.3445,-10.0748 -63.6284,-26.3587 -16.2839,-16.2839 -26.3587,-38.7827 -26.3587,-63.6284 0,-24.8469 10.0748,-47.3445 26.3587,-63.6296 16.2839,-16.2839 38.7827,-26.3575 63.6284,-26.3575 24.8469,0 47.3445,10.0736 63.6296,26.3575 16.2839,16.2851 26.3575,38.7827 26.3575,63.6296 0,24.8457 -10.0736,47.3445 -26.3575,63.6284 -16.2851,16.2839 -38.7827,26.3587 -63.6296,26.3587zm-49.7776 -40.2095c12.7394,12.737 30.3378,20.6162 49.7776,20.6162 19.4398,0 37.0406,-7.88032 49.7776,-20.6162 12.7382,-12.7394 20.6173,-30.3378 20.6173,-49.7776 0,-19.441 -7.88032,-37.0406 -20.6173,-49.7776 -12.737,-12.737 -30.3378,-20.6173 -49.7776,-20.6173 -19.4398,0 -37.0382,7.87914 -49.7776,20.6173 -12.7358,12.737 -20.6162,30.3366 -20.6162,49.7776 0,19.4398 7.87914,37.0382 20.6162,49.7776z"/>
   <path id="_311513296" class="fil13" d="M921.868 1285.64c-13.8461,0 -25.0713,-11.2252 -25.0713,-25.0725 0,-13.8461 11.2252,-25.0713 25.0713,-25.0713 13.8473,0 25.0725,11.2252 25.0725,25.0713 0,13.8473 -11.2252,25.0725 -25.0725,25.0725z"/>
   <rect id="_311513200" class="fil14" x="700.903" y="1039.6" width="436.001" height="436.001"/>
   <rect id="_311513104" class="fil14" x="700.903" y="1039.6" width="436.001" height="436.001"/>
   <path id="_311513032" class="fil10" d="M1364.62 1422.66c-89.5229,0 -162.093,-72.5705 -162.093,-162.092 0,-89.5229 72.5705,-162.093 162.093,-162.093 89.5217,0 162.092,72.5705 162.092,162.093 0,89.5217 -72.5705,162.092 -162.092,162.092zm-0.0011811 -81.9024c-44.2878,0 -80.1898,-35.9032 -80.1898,-80.191 0,-44.2878 35.902,-80.1898 80.1898,-80.1898 44.2878,0 80.191,35.902 80.191,80.1898 0,44.2878 -35.9032,80.191 -80.191,80.191z"/>
   <path id="_311512960" class="fil8" d="M1364.62 1422.66c-89.5229,0 -162.093,-72.5705 -162.093,-162.092 0,-89.5229 72.5705,-162.093 162.093,-162.093 89.5217,0 162.092,72.5705 162.092,162.093 0,89.5217 -72.5705,162.092 -162.092,162.092zm-0.0011811 -30.9355c-72.4371,0 -131.158,-58.7209 -131.158,-131.158 0,-72.4371 58.7209,-131.158 131.158,-131.158 72.4371,0 131.158,58.7209 131.158,131.158 0,72.4371 -58.7209,131.158 -131.158,131.158z"/>
   <path id="_311512888" class="fil11" d="M1364.62 1425.05c-1.47402,0 -2.94213,-0.0212599 -4.4067,-0.0602363l-16.4551 -32.9634c6.79725,1.07008 13.7634,1.6311 20.8606,1.6311 1.43622,0 2.86536,-0.0307087 4.28977,-0.0767717l15.1347 30.3213c-6.37087,0.748819 -12.8504,1.14803 -19.4232,1.14803zm-64.891 -13.3063c-7.35237,-3.15945 -14.4272,-6.83977 -21.1807,-10.9937l2.23465 -36.8209c6.51733,5.2937 13.5449,9.9815 20.9988,13.9819l-2.05276 33.8327zm-66.9095 -52.7563c-4.75158,-6.35434 -9.05788,-13.063 -12.8646,-20.0823l20.3386 -30.7607c3.03189,7.91812 6.79843,15.4701 11.2158,22.5768l-18.6898 28.2662zm-31.5496 -79.1197c-0.740552,-6.33189 -1.13386,-12.7701 -1.13386,-19.3004 0,-1.5189 0.0248032,-3.03071 0.0649607,-4.53898l32.9823 -16.4646c-1.08425,6.84213 -1.65591,13.8555 -1.65591,21.0024 0,1.3937 0.0283465,2.77914 0.0720473,4.16103l-30.3296 15.1406zm12.2067 -84.2705c3.16418,-7.35355 6.84922,-14.4272 11.0079,-21.1795l36.8351 2.23465c-5.30079,6.51615 -9.99804,13.5437 -14.0043,20.9977l-33.8386 -2.05276zm52.7422 -66.8457c6.35552,-4.75158 13.0665,-9.0567 20.0858,-12.8622l30.7642 20.3421c-7.91812,3.02953 -15.4736,6.79489 -22.5827,11.211l-28.2673 -18.691zm79.0583 -31.5296c6.34489,-0.744095 12.7973,-1.13858 19.3429,-1.13858 1.50236,0 3.00118,0.0236221 4.49292,0.0637796l16.461 32.9752c-6.82678,-1.08071 -13.8236,-1.64764 -20.9551,-1.64764 -1.40788,0 -2.8063,0.0295276 -4.20355,0.0732284l-15.1382 -30.326zm84.2221 12.1618c7.35119,3.16063 14.4272,6.83859 21.1807,10.9937l-2.23465 36.8185c-6.51733,-5.2937 -13.5449,-9.9815 -20.9988,-13.9807l2.05276 -33.8315zm66.8575 52.6807c4.7563,6.34961 9.06379,13.0536 12.8752,20.0669l-20.3291 30.7465c-3.0378,-7.91103 -6.80906,-15.4559 -11.2299,-22.5567l18.6839 -28.2567zm31.5933 79.0359c0.753544,6.38504 1.15276,12.8788 1.15276,19.4669 0,1.45866 -0.0212599,2.91142 -0.0578741,4.36063l-32.9587 16.4528c1.06654,-6.78189 1.62402,-13.7327 1.62402,-20.8146 0,-1.44921 -0.0318898,-2.89252 -0.0779528,-4.33111l30.3177 -15.1347zm-12.1134 84.267c-3.15591,7.35119 -6.82914,14.4284 -10.9784,21.1819l-36.8067 -2.23347c5.28662,-6.51969 9.96733,-13.5484 13.9606,-21.0012l33.8244 2.05276zm-52.6949 66.9213c-6.34843,4.7563 -13.0512,9.06497 -20.0634,12.8776l-30.7418 -20.3268c7.90867,-3.03898 15.4512,-6.81142 22.5496,-11.2323l28.2555 18.6815z"/>
   <path id="_311512816" class="fil1" d="M1364.61 1340.76c-44.2878,0 -80.1898,-35.9032 -80.1898,-80.191 0,-44.2878 35.902,-80.1898 80.1898,-80.1898 44.2878,0 80.191,35.902 80.191,80.1898 0,44.2878 -35.9032,80.191 -80.191,80.191z"/>
   <path id="_311512720" class="fil12" d="M1364.61 1350.55c-24.8457,0 -47.3445,-10.0748 -63.6284,-26.3587 -16.2839,-16.2839 -26.3575,-38.7827 -26.3575,-63.6284 0,-24.8469 10.0736,-47.3445 26.3575,-63.6296 16.2839,-16.2839 38.7827,-26.3575 63.6284,-26.3575 24.8469,0 47.3445,10.0736 63.6296,26.3575 16.2839,16.2851 26.3575,38.7827 26.3575,63.6296 0,24.8457 -10.0736,47.3445 -26.3575,63.6284 -16.2851,16.2839 -38.7827,26.3587 -63.6296,26.3587zm-49.7776 -40.2095c12.7382,12.7358 30.3378,20.6162 49.7776,20.6162 19.441,0 37.0394,-7.87914 49.7788,-20.6162 12.737,-12.7394 20.6162,-30.3378 20.6162,-49.7776 0,-19.441 -7.88032,-37.0406 -20.6162,-49.7776 -12.7394,-12.7382 -30.3378,-20.6173 -49.7788,-20.6173 -19.4398,0 -37.0394,7.88032 -49.7776,20.6173 -12.7358,12.737 -20.6162,30.3366 -20.6162,49.7776 0,19.4398 7.87914,37.0382 20.6162,49.7776z"/>
   <path id="_311512648" class="fil13" d="M1364.61 1285.64c-13.8461,0 -25.0713,-11.2252 -25.0713,-25.0725 0,-13.8461 11.2252,-25.0713 25.0713,-25.0713 13.8473,0 25.0725,11.2252 25.0725,25.0713 0,13.8473 -11.2252,25.0725 -25.0725,25.0725z"/>
   <rect id="_311512552" class="fil14" x="1143.65" y="1039.6" width="436.001" height="436.001"/>
   <rect id="_311512456" class="fil14" x="1143.65" y="1039.6" width="436.001" height="436.001"/>
   <path id="_311512144" class="fil15" d="M1501.14 919.085c9.39686,0 17.0126,7.61693 17.0126,17.0126 0,9.39686 -7.61575,17.0126 -17.0126,17.0126 -9.39568,0 -17.0114,-7.61575 -17.0114,-17.0126 0,-9.39568 7.61575,-17.0126 17.0114,-17.0126z"/>
   <path id="_311512216" class="fil16" d="M364.383 1283.56c0,7.67245 -6.21969,13.8933 -13.8921,13.8933 -7.67245,0 -13.8921,-6.22087 -13.8921,-13.8933l0 -190.977c0,-7.67245 6.21969,-13.8921 13.8921,-13.8921 7.67245,0 13.8921,6.21969 13.8921,13.8921l0 190.977z"/>
   <path id="_311512048" class="fil0" d="M350.49 862.601l0.0011811 0c11.7142,0 21.2988,9.58465 21.2988,21.2988l0 14.3799c0,11.7142 -9.58465,21.2988 -21.2988,21.2988l-0.0011811 0c-11.7142,0 -21.2977,-9.58465 -21.2977,-21.2988l0 -14.3799c0,-11.7142 9.58347,-21.2988 21.2977,-21.2988zm-0.227953 12.8906c4.10551,0 7.43268,3.32835 7.43268,7.43268 0,4.1067 -3.32717,7.43505 -7.43268,7.43505 -4.1067,0 -7.43386,-3.32835 -7.43386,-7.43505 0,-4.10433 3.32717,-7.43268 7.43386,-7.43268z"/>
   <polygon id="_311511976" class="fil17" points="298.001,904.596 402.982,904.596 423.979,904.596 423.979,925.595 410.448,1094.46 423.979,1156.57 402.982,1166.48 298.001,1166.48 277.003,1156.57 292.247,1094.46 277.003,925.595 277.003,904.596 "/>
   <polygon id="_311511880" class="fil5" points="255.999,895.523 444.982,895.523 444.982,937.521 255.999,937.521 "/>
   <path id="_311511760" class="fil18" d="M350.19 1297.45c-7.53308,-0.16063 -13.591,-6.31654 -13.591,-13.8886l0 -190.977c0,-7.57205 6.05788,-13.728 13.591,-13.8886l0 218.754z"/>
   <path id="_311511568" class="fil4" d="M350.19 919.574c-11.5772,-0.162992 -20.9977,-9.68032 -20.9977,-21.2941l0 -14.3799c0,-11.6138 9.42048,-21.1323 20.9977,-21.2953l0 12.8882c-4.07363,0.0377953 -7.36182,3.35079 -7.36182,7.4315 0,4.08307 3.28819,7.39489 7.36182,7.43386l0 29.2158z"/>
   <polygon id="_311511424" class="fil19" points="298.001,904.596 350.19,904.596 350.19,1166.48 298.001,1166.48 277.003,1156.57 292.247,1094.46 277.003,925.595 277.003,904.596 "/>
   <polygon id="_311511304" class="fil7" points="255.999,895.523 350.19,895.523 350.19,937.521 255.999,937.521 "/>
   <path id="_311511136" class="fil0" d="M595.898 691.225c8.60079,0 15.5728,6.97205 15.5728,15.574 0,8.60079 -6.97205,15.5728 -15.5728,15.5728 -8.60198,0 -15.574,-6.97205 -15.574,-15.5728 0,-8.60198 6.97205,-15.574 15.574,-15.574z"/>
   <polygon id="_311511040" class="fil20" points="966.588,982.487 864.227,1075.85 862.124,1077.77 1133.71,1077.77 1133.71,1075.85 1133.71,982.487 "/>
   <rect id="_311510920" class="fil8" x="662.699" y="1252.2" width="69.2107" height="62.6273"/>
  </g>
  <rect class="fil14" width="2048" height="2048"/>
 </g>
</svg>
