<?xml version="1.0" encoding="UTF-8"?>
<!DOCTYPE svg PUBLIC "-//W3C//DTD SVG 1.1//EN" "http://www.w3.org/Graphics/SVG/1.1/DTD/svg11.dtd">
<!-- Creator: CorelDRAW -->
<svg xmlns="http://www.w3.org/2000/svg" xml:space="preserve" width="2048px" height="2048px" style="shape-rendering:geometricPrecision; text-rendering:geometricPrecision; image-rendering:optimizeQuality; fill-rule:evenodd; clip-rule:evenodd"
viewBox="0 0 2048 2048"
 xmlns:xlink="http://www.w3.org/1999/xlink">
 <defs>
  <style type="text/css">
   <![CDATA[
    .fil15 {fill:none}
    .fil0 {fill:#202020}
    .fil9 {fill:#2F2F2F}
    .fil8 {fill:#3B3B3B}
    .fil7 {fill:#414141}
    .fil14 {fill:#4A4A4A}
    .fil5 {fill:#545454}
    .fil6 {fill:#5F5F5F}
    .fil13 {fill:#989898}
    .fil1 {fill:#A2A2A2}
    .fil2 {fill:#2D2D2D;fill-rule:nonzero}
    .fil3 {fill:#909090;fill-rule:nonzero}
    .fil12 {fill:#9C9C9D;fill-rule:nonzero}
    .fil11 {fill:#AFAFAF;fill-rule:nonzero}
    .fil4 {fill:#BEBEBE;fill-rule:nonzero}
    .fil10 {fill:#C9C9C9;fill-rule:nonzero}
   ]]>
  </style>
 </defs>
 <g id="Layer_x0020_1">
  <metadata id="CorelCorpID_0Corel-Layer"/>
  <g id="_461661296">
   <g>
    <g>
     <g>
      <path id="_461659376" class="fil0" d="M1538.55 1604.69l58.8886 0c3.64725,17.3764 35.237,30.9579 73.6725,30.9579 37.4835,0 68.4544,-12.9165 73.3489,-29.6729 5.46142,2.38937 9.30119,7.84725 9.30119,14.1626l0 76.754c0,8.49568 -6.95197,15.4476 -15.4476,15.4476l-281.21 0c-8.49568,0 -15.4476,-6.95197 -15.4476,-15.4476l0 -19.1894c0,-36.7831 67.291,-73.0123 96.8942,-73.0123z"/>
      <rect id="_461661848" class="fil0" x="1438.71" y="1704.29" width="320.803" height="8.99596"/>
     </g>
     <polygon id="_461648888" class="fil1" points="984.329,478.264 986.928,479.239 1048.53,502.341 979.587,571.285 951.863,533.712 "/>
     <path id="_461653256" class="fil2" d="M860.892 1500.34l15.75 37.9973c2.80394,2.53465 -0.20315,-8.57127 4.94055,-8.03623 14.2795,1.48347 28.702,2.98583 38.9516,8.9504 1.97362,1.14803 7.42442,3.07323 13.8756,5.34804 30.2516,10.6736 75.7312,26.7248 98.9906,79.3938 21.0284,47.615 81.5174,74.576 106.378,85.656 15.4146,6.87166 24.9874,11.1272 28.9335,25.9311l9.98859 37.4717 -38.8217 0 -818.933 0 -32.4544 0 2.68819 -32.3362c8.33268,-100.231 26.0067,-104.069 57.9851,-111.013 10.8024,-2.34449 26.0433,-5.65394 53.2843,-59.4756 3.42756,-6.77363 6.58229,-13.0311 9.49725,-18.8173 23.7343,-47.1095 32.974,-65.4485 49.1055,-80.4733 10.6158,-9.89056 21.1772,-15.5622 38.465,-24.8445 19.2402,-10.3311 48.2729,-25.9205 97.2107,-58.9217l0.116929 0c4.94646,-3.32953 18.4536,-7.05119 31.5319,-9.65316 12.541,-2.49567 26.8347,-4.76811 31.6961,-4.76811 8.96694,0 18.4441,2.14252 27.0992,5.44961 8.98229,3.42992 17.6941,8.43308 24.1547,13.6488 3.06024,2.47205 6.09804,5.10473 9.07205,7.68426 4.80945,4.16929 9.41103,8.15906 13.8154,10.9158 4.33465,2.71299 12.4394,8.72481 23.1945,16.6984 25.2957,18.7583 45.0213,71.2678 57.2587,61.4044l46.2248 11.7898z"/>
     <polygon id="_461653712" class="fil3" points="1229.53,1015.95 819.451,1342.71 791.336,1322.85 1201.41,996.089 "/>
     <path id="_461662664" class="fil4" d="M780.334 1254.52l90.6131 118.805 18.091 23.7166 -23.6941 18.0721 -53.6079 40.8874c-1.25551,0.957875 -2.34567,1.76339 -3.25512,2.40355 -0.529134,0.372048 -1.64646,1.10906 -3.31418,2.18977l-30.0886 19.4788c-49.6559,-97.8249 -16.578,-19.526 -115.002,-96.541l-28.2118 1.04291c15.5976,-35.8855 20.0669,-69.593 53.0717,-94.7705l53.6079 -40.8874 23.7189 -18.091 18.0709 23.6941z"/>
     <path id="_461665448" class="fil5" d="M1610.46 873.955l0.0625985 0.0661418c3.51969,3.79488 6.96851,7.3441 10.3193,10.7965 25.6689,26.4355 46.839,48.2374 62.0245,115.285 41.1922,181.858 -34.976,264.252 -34.976,354.585 0,14.1921 81.2316,168.036 91.0383,207.66 4.35473,17.6173 6.95315,31.2095 7.82127,42.3402 -6.68504,35.3339 -128.741,48.8315 -148.78,1.95709 -0.687402,-1.57441 -6.29646,-5.17205 -6.913,-6.89174l-0.540945 -1.62402 -119.685 -167.865 -1.05118 -5.01969 -25.0477 -224.554 -101.903 76.6264c-3.84449,4.16929 -10.4658,12.385 -13.1539,25.3276 -3.57284,17.2063 -0.874016,42.9107 20.152,80.4213 24.7843,44.217 46.9914,90.3568 67.9418,133.886 16.1587,33.5764 31.5532,65.563 46.8756,93.8623l0.466536 0.934253c3.15,6.40394 6.65315,12.3709 10.1575,18.3425 12.8882,21.9543 25.8177,43.9807 25.8177,75.267l-2.61024 67.6938c-41.5737,-5.52284 -44.217,-41.7437 -87.8552,-39.2563 -30.7146,1.7504 -40.9689,28.0949 -57.6248,-4.97008l-3.93662 -15.5398c-52.5733,-95.4142 -168.589,-157.494 -255.218,-317.698 -15.8587,-27.1666 -22.8414,-63.0355 -20.8677,-97.4387 1.99134,-34.7209 13.0866,-69.0556 33.3756,-93.0331 24.4122,-28.8591 51.7725,-59.9197 80.7839,-91.5674 20.113,-21.9378 40.3323,-43.3961 60.1406,-63.7347l-1.30984 -1.29921 -0.346063 -0.343701 364.842 -174.216z"/>
     <path id="_461656160" class="fil6" d="M1521.41 454.601c73.0406,0 132.969,0.0011811 155.78,117.52l0.584646 5.60315c0,108.658 -10.9476,174.755 -28.0984,218.467 -12.9862,33.1004 -29.1154,53.6197 -46.7315,69.3591 2.53701,2.95748 5.04449,5.74134 7.51536,8.40473l-281.916 134.617 -82.9253 39.5988c-21.489,-21.3059 -43.7693,-43.2544 -67.4941,-66.5256 -20.6055,-20.2122 -68.0363,-68.7249 -91.5544,-91.6678l-36.3425 195.761c-7.43977,26.4756 -23.8075,75.0733 -55.1563,98.7615 -25.6347,19.3713 -61.2874,22.089 -110.267,-17.5642 -14.4839,-18.5008 -23.1319,-42.0414 -23.1319,-66.0993 0,-5.1815 0.464174,-10.6784 1.42559,-16.4646l58.6619 -352.948 -0.0200788 -0.00236221c2.21575,-18.6036 6.42638,-49.2709 11.9291,-77.1816 3.97205,-20.152 8.71182,-39.2126 14.0811,-52.3926 12.6378,-31.0134 33.7807,-59.5276 60.8233,-83.4792 26.7166,-23.6634 59.1343,-42.8658 94.6406,-55.5378 59.1721,-21.1181 222.01,-14.8949 333.51,-10.6335 34.0134,1.29921 62.9091,2.40355 84.4111,2.40355l0.274016 0zm6.52796 178.474l-23.5855 105.011c-0.818505,4.37363 -3.29173,8.57127 -7.41024,11.8937 -10.0854,8.13308 -26.2146,7.94883 -36.0236,-0.414567l-122.741 -104.434c-5.28426,-3.87992 -8.61733,-9.54804 -8.61733,-15.8622 0,-11.7 11.4366,-21.1854 25.5473,-21.1854l147.783 0 0 0.0661418c1.51417,0 3.04843,0.114567 4.58977,0.348425 13.8319,2.10236 22.9914,13.1067 20.4579,24.5776z"/>
     <line id="_461668064" class="fil7" x1="1093.84" y1="1395.59" x2="1093.84" y2= "1395.59" />
     <polygon id="_461671928" class="fil5" points="1163.75,739.538 1311.45,1016.74 1489.32,948.878 1610.53,874.021 1280.54,633.142 "/>
     <polygon id="_461670704" class="fil5" points="1086.57,889.978 1277.93,1032.74 1247.28,1049.81 "/>
     <path id="_461670536" class="fil8" d="M1064.64 479.77c7.19056,-3.78898 14.576,-7.3004 22.1315,-10.5142 48.3036,47.2146 195.3,187.025 195.806,187.506l-16.05 16.8709c-0.523229,-0.496063 -156.662,-149.035 -201.887,-193.863z"/>
     <path id="_461669768" class="fil8" d="M948.067 601.087c2.94095,-7.12914 6.33071,-14.1272 10.1398,-20.9646 33.1902,18.3402 255.916,143.048 256.576,143.414l-16.415 17.054c-0.656693,-0.36378 -217.663,-121.504 -250.301,-139.504z"/>
     <path id="_461668208" class="fil9" d="M1604.38 864.258c-0.473622,0.433465 -0.950788,0.865749 -1.42795,1.29213 2.53701,2.95748 5.04449,5.74134 7.51536,8.40473l-40.7764 19.4705c-10.4776,3.84567 -22.9512,9.09922 -37.7646,16.2378 -36.5103,18.0248 -161.458,75.9449 -235.977,114.478l-50.3233 24.0295c-4.75276,-4.71024 -9.54095,-9.45355 -14.3764,-14.2335 42.0213,-30.5008 240.128,-120.951 290.554,-145.251 37.3677,-18.0071 64.0288,-23.8677 82.5768,-24.4288z"/>
     <path id="_461672792" class="fil10" d="M920.644 318.137c1.9252,0.90945 3.82914,1.86378 5.70945,2.86299 0.0437008,-0.0507874 0.0850394,-0.102756 0.129921,-0.153543 6.23741,-7.06418 21.4465,-3.82677 33.9685,7.23071 12.228,10.7976 17.3705,25.0571 11.7992,32.2996 17.3315,22.3725 30.2103,50.2819 35.7248,78.0036 6.99095,35.1437 2.33858,70.4138 -19.5095,95.1568 -21.8492,24.7441 -56.2725,33.7252 -92.0115,31.1374 -28.2154,-2.04331 -57.5292,-11.3835 -81.8871,-25.8331 -34.552,-26.2973 -31.891,-29.1638 -44.687,-40.6264 -1.22599,-1.74567 -2.41063,-3.51851 -3.55394,-5.31851l-5.4626 -8.60434 6.70512 -7.59449 137.154 -155.323 6.7063 -7.59331 9.21379 4.35591z"/>
     <path id="_461667944" class="fil0" d="M935.241 327.749c14.9528,9.19607 26.2146,20.7532 36.828,32.726 31.2898,36.8422 72.0945,62.7071 52.1044,88.4221 -59.4662,76.4989 -153.423,30.6248 -201.038,5.80985 -7.64174,-3.98268 112.106,-126.958 112.106,-126.958z"/>
     <path id="_461657240" class="fil11" d="M765.383 282.333c11.1768,-7.5567 23.061,-13.5165 35.289,-17.8417l35.2441 71.5489 -9.04961 -78.2363c7.03229,-1.12323 14.0929,-1.72677 21.1205,-1.79646 31.7138,-0.320079 62.7402,10.0878 87.3969,31.8614 1.39725,1.23307 3.08386,2.82284 5.04804,4.75276 1.69016,1.66181 3.33544,3.36614 4.93229,5.10355l-0.00826772 0.00708662 0.00590552 0.00590552 8.4189 9.01536 -8.11182 9.18662 -178.425 202.06 -8.12835 9.2067 -10.011 -7.29213 -0.152362 -0.111024 -0.00826772 0.011811c-1.89921,-1.35827 -3.763,-2.76024 -5.58308,-4.20355 -2.12953,-1.68898 -3.88465,-3.14173 -5.24528,-4.34174 -24.6567,-21.7736 -38.8252,-51.2717 -42.4335,-82.7823 -0.799607,-6.9815 -1.07599,-14.0634 -0.830316,-21.1807l77.3457 -0.329528 -73.9524 -26.4921c2.77914,-12.6697 7.22245,-25.1988 13.337,-37.2248l-14.0351 -12.3921 -10.1539 -8.96694 8.96694 -10.1551 35.8666 -40.6181 8.96694 -10.1551 10.1551 8.96694 14.0339 12.3933z"/>
     <path id="_461666072" class="fil11" d="M765.383 282.333c11.1768,-7.5567 23.061,-13.5165 35.289,-17.8417l35.2441 71.5489 -9.04961 -78.2363c7.03229,-1.12323 14.0929,-1.72677 21.1205,-1.79646 31.7138,-0.320079 62.7402,10.0878 87.3969,31.8614 1.39725,1.23307 3.08386,2.82284 5.04804,4.75276 1.69016,1.66181 3.33544,3.36614 4.93229,5.10355l-0.00826772 0.00708662 0.00590552 0.00590552 8.4189 9.01536 -8.11182 9.18662 -178.425 202.06 -8.12835 9.2067 -10.011 -7.29213 -0.152362 -0.111024 -0.00826772 0.011811c-1.89921,-1.35827 -3.763,-2.76024 -5.58308,-4.20355 -2.12953,-1.68898 -3.88465,-3.14173 -5.24528,-4.34174 -24.6567,-21.7736 -38.8252,-51.2717 -42.4335,-82.7823 -0.799607,-6.9815 -1.07599,-14.0634 -0.830316,-21.1807l77.3457 -0.329528 -73.9524 -26.4921c2.77914,-12.6697 7.22245,-25.1988 13.337,-37.2248l-14.0351 -12.3921 -10.1539 -8.96694 8.96694 -10.1551 35.8666 -40.6181 8.96694 -10.1551 10.1551 8.96694 14.0339 12.3933z"/>
     <polygon id="_461664704" class="fil12" points="728.547,520.89 943.748,277.182 964.057,295.116 748.857,538.824 "/>
     <path id="_461658008" class="fil13" d="M772.198 406.977l-68.5477 -24.5551c-1.45984,8.2252 -2.20158,16.5449 -2.2311,24.8575l70.7788 -0.302362z"/>
     <path id="_461662856" class="fil13" d="M803.205 269.633l32.7118 66.4075 -8.29489 -71.713c-8.25473,1.06063 -16.4268,2.83229 -24.4169,5.30552z"/>
     <path id="_461664344" class="fil13" d="M711.506 343.193c5.83465,-12.091 13.402,-23.5937 22.7244,-34.1504 9.32363,-10.5579 19.8012,-19.4906 31.076,-26.7768l-13.9571 -12.326 -10.1551 -8.96694 -8.96694 10.1551 -35.8666 40.6181 -8.96694 10.1551 10.1539 8.96694 13.9583 12.3248z"/>
     <path id="_461663264" class="fil1" d="M819.408 462.176c12.8445,-19.5685 26.0776,-1.26969 40.0725,8.28898 13.9961,9.55749 18.0555,20.7555 13.2154,27.8433 -4.84134,7.08662 -9.32009,4.11969 -23.315,-5.43898 -13.9961,-9.55867 -42.8162,-11.1248 -29.9729,-30.6933z"/>
     <g>
      <path id="_461662064" class="fil7" d="M1299.49 1683.4l58.8886 0c3.64725,17.3764 35.237,30.9567 73.6725,30.9567 37.4835,0 68.4544,-12.9165 73.3489,-29.6717 5.46024,2.38819 9.30001,7.84725 9.30001,14.1614l0 76.754c0,8.49686 -6.95079,15.4476 -15.4465,15.4476l-281.21 0c-8.49568,0 -15.4476,-6.95079 -15.4476,-15.4476l0 -19.1894c0,-36.7819 67.291,-73.0111 96.8942,-73.0111z"/>
      <rect id="_461661224" class="fil0" x="1199.65" y="1783" width="320.803" height="8.99596"/>
     </g>
    </g>
    <path id="_461659832" class="fil14" d="M1628.7 892.967c0,0 62.563,146.338 -60.7028,227.032 -65.4367,42.8374 -102.637,67.8225 -123.138,81.8363l24.9236 223.409 1.05118 5.01969 119.681 167.87 0.542126 1.61811c0.422835,1.18347 3.19961,3.24803 5.12008,4.93701 0.876379,0.77126 1.57559,1.46457 1.78937,1.96063 0.00708662,0.011811 0.011811,0.0248032 0.0165354,0.0377953 1.09961,2.56418 2.5063,4.94764 4.18229,7.1563 28.2898,37.2827 133.494,24.8256 144.02,-6.97914 0.236221,-0.715749 0.425197,-1.44095 0.564567,-2.17559 -0.874016,-11.126 -3.47244,-24.7205 -7.8189,-42.3426 -9.81497,-39.626 -91.0394,-193.465 -91.0394,-207.662 0,-90.3308 76.1693,-172.725 34.9725,-354.579 -13.6099,-60.0815 -32.0185,-83.8335 -54.1642,-107.139z"/>
   </g>
   <rect id="_461661920" class="fil15" width="2048" height="2048"/>
  </g>
  <g id="_461677232">
   <g>
    <g>
     <g>
      <path id="_461659568" class="fil0" d="M1538.55 1604.69l58.8886 0c3.64725,17.3764 35.237,30.9579 73.6725,30.9579 37.4835,0 68.4544,-12.9165 73.3489,-29.6729 5.46142,2.38937 9.30119,7.84725 9.30119,14.1626l0 76.754c0,8.49568 -6.95197,15.4476 -15.4476,15.4476l-281.21 0c-8.49568,0 -15.4476,-6.95197 -15.4476,-15.4476l0 -19.1894c0,-36.7831 67.291,-73.0123 96.8942,-73.0123z"/>
      <rect id="_461658464" class="fil0" x="1438.71" y="1704.29" width="320.803" height="8.99596"/>
     </g>
     <polygon id="_461657792" class="fil1" points="984.329,478.264 986.928,479.239 1048.53,502.341 979.587,571.285 951.863,533.712 "/>
     <path id="_461658728" class="fil2" d="M860.892 1500.34l15.75 37.9973c2.80394,2.53465 -0.20315,-8.57127 4.94055,-8.03623 14.2795,1.48347 28.702,2.98583 38.9516,8.9504 1.97362,1.14803 7.42442,3.07323 13.8756,5.34804 30.2516,10.6736 75.7312,26.7248 98.9906,79.3938 21.0284,47.615 81.5174,74.576 106.378,85.656 15.4146,6.87166 24.9874,11.1272 28.9335,25.9311l9.98859 37.4717 -38.8217 0 -818.933 0 -32.4544 0 2.68819 -32.3362c8.33268,-100.231 26.0067,-104.069 57.9851,-111.013 10.8024,-2.34449 26.0433,-5.65394 53.2843,-59.4756 3.42756,-6.77363 6.58229,-13.0311 9.49725,-18.8173 23.7343,-47.1095 32.974,-65.4485 49.1055,-80.4733 10.6158,-9.89056 21.1772,-15.5622 38.465,-24.8445 19.2402,-10.3311 48.2729,-25.9205 97.2107,-58.9217l0.116929 0c4.94646,-3.32953 18.4536,-7.05119 31.5319,-9.65316 12.541,-2.49567 26.8347,-4.76811 31.6961,-4.76811 8.96694,0 18.4441,2.14252 27.0992,5.44961 8.98229,3.42992 17.6941,8.43308 24.1547,13.6488 3.06024,2.47205 6.09804,5.10473 9.07205,7.68426 4.80945,4.16929 9.41103,8.15906 13.8154,10.9158 4.33465,2.71299 12.4394,8.72481 23.1945,16.6984 25.2957,18.7583 45.0213,71.2678 57.2587,61.4044l46.2248 11.7898z"/>
     <polygon id="_461655680" class="fil3" points="1229.53,1015.95 819.451,1342.71 791.336,1322.85 1201.41,996.089 "/>
     <path id="_461657912" class="fil4" d="M780.334 1254.52l90.6131 118.805 18.091 23.7166 -23.6941 18.0721 -53.6079 40.8874c-1.25551,0.957875 -2.34567,1.76339 -3.25512,2.40355 -0.529134,0.372048 -1.64646,1.10906 -3.31418,2.18977l-30.0886 19.4788c-49.6559,-97.8249 -16.578,-19.526 -115.002,-96.541l-28.2118 1.04291c15.5976,-35.8855 20.0669,-69.593 53.0717,-94.7705l53.6079 -40.8874 23.7189 -18.091 18.0709 23.6941z"/>
     <path id="_461655824" class="fil5" d="M1610.46 873.955l0.0625985 0.0661418c3.51969,3.79488 6.96851,7.3441 10.3193,10.7965 25.6689,26.4355 46.839,48.2374 62.0245,115.285 41.1922,181.858 -34.976,264.252 -34.976,354.585 0,14.1921 81.2316,168.036 91.0383,207.66 4.35473,17.6173 6.95315,31.2095 7.82127,42.3402 -6.68504,35.3339 -128.741,48.8315 -148.78,1.95709 -0.687402,-1.57441 -6.29646,-5.17205 -6.913,-6.89174l-0.540945 -1.62402 -119.685 -167.865 -1.05118 -5.01969 -25.0477 -224.554 -101.903 76.6264c-3.84449,4.16929 -10.4658,12.385 -13.1539,25.3276 -3.57284,17.2063 -0.874016,42.9107 20.152,80.4213 24.7843,44.217 46.9914,90.3568 67.9418,133.886 16.1587,33.5764 31.5532,65.563 46.8756,93.8623l0.466536 0.934253c3.15,6.40394 6.65315,12.3709 10.1575,18.3425 12.8882,21.9543 25.8177,43.9807 25.8177,75.267l-2.61024 67.6938c-41.5737,-5.52284 -44.217,-41.7437 -87.8552,-39.2563 -30.7146,1.7504 -40.9689,28.0949 -57.6248,-4.97008l-3.93662 -15.5398c-52.5733,-95.4142 -168.589,-157.494 -255.218,-317.698 -15.8587,-27.1666 -22.8414,-63.0355 -20.8677,-97.4387 1.99134,-34.7209 13.0866,-69.0556 33.3756,-93.0331 24.4122,-28.8591 51.7725,-59.9197 80.7839,-91.5674 20.113,-21.9378 40.3323,-43.3961 60.1406,-63.7347l-1.30984 -1.29921 -0.346063 -0.343701 364.842 -174.216z"/>
     <path id="_461654600" class="fil6" d="M1521.41 454.601c73.0406,0 132.969,0.0011811 155.78,117.52l0.584646 5.60315c0,108.658 -10.9476,174.755 -28.0984,218.467 -12.9862,33.1004 -29.1154,53.6197 -46.7315,69.3591 2.53701,2.95748 5.04449,5.74134 7.51536,8.40473l-281.916 134.617 -82.9253 39.5988c-21.489,-21.3059 -43.7693,-43.2544 -67.4941,-66.5256 -20.6055,-20.2122 -68.0363,-68.7249 -91.5544,-91.6678l-36.3425 195.761c-7.43977,26.4756 -23.8075,75.0733 -55.1563,98.7615 -25.6347,19.3713 -61.2874,22.089 -110.267,-17.5642 -14.4839,-18.5008 -23.1319,-42.0414 -23.1319,-66.0993 0,-5.1815 0.464174,-10.6784 1.42559,-16.4646l58.6619 -352.948 -0.0200788 -0.00236221c2.21575,-18.6036 6.42638,-49.2709 11.9291,-77.1816 3.97205,-20.152 8.71182,-39.2126 14.0811,-52.3926 12.6378,-31.0134 33.7807,-59.5276 60.8233,-83.4792 26.7166,-23.6634 59.1343,-42.8658 94.6406,-55.5378 59.1721,-21.1181 222.01,-14.8949 333.51,-10.6335 34.0134,1.29921 62.9091,2.40355 84.4111,2.40355l0.274016 0zm6.52796 178.474l-23.5855 105.011c-0.818505,4.37363 -3.29173,8.57127 -7.41024,11.8937 -10.0854,8.13308 -26.2146,7.94883 -36.0236,-0.414567l-122.741 -104.434c-5.28426,-3.87992 -8.61733,-9.54804 -8.61733,-15.8622 0,-11.7 11.4366,-21.1854 25.5473,-21.1854l147.783 0 0 0.0661418c1.51417,0 3.04843,0.114567 4.58977,0.348425 13.8319,2.10236 22.9914,13.1067 20.4579,24.5776z"/>
     <line id="_461654096" class="fil7" x1="1093.84" y1="1395.59" x2="1093.84" y2= "1395.59" />
     <polygon id="_461653664" class="fil5" points="1163.75,739.538 1311.45,1016.74 1489.32,948.878 1610.53,874.021 1280.54,633.142 "/>
     <polygon id="_461652200" class="fil5" points="1086.57,889.978 1277.93,1032.74 1247.28,1049.81 "/>
     <path id="_461652056" class="fil8" d="M1064.64 479.77c7.19056,-3.78898 14.576,-7.3004 22.1315,-10.5142 48.3036,47.2146 195.3,187.025 195.806,187.506l-16.05 16.8709c-0.523229,-0.496063 -156.662,-149.035 -201.887,-193.863z"/>
     <path id="_461651528" class="fil8" d="M948.067 601.087c2.94095,-7.12914 6.33071,-14.1272 10.1398,-20.9646 33.1902,18.3402 255.916,143.048 256.576,143.414l-16.415 17.054c-0.656693,-0.36378 -217.663,-121.504 -250.301,-139.504z"/>
     <path id="_461651816" class="fil9" d="M1604.38 864.258c-0.473622,0.433465 -0.950788,0.865749 -1.42795,1.29213 2.53701,2.95748 5.04449,5.74134 7.51536,8.40473l-40.7764 19.4705c-10.4776,3.84567 -22.9512,9.09922 -37.7646,16.2378 -36.5103,18.0248 -161.458,75.9449 -235.977,114.478l-50.3233 24.0295c-4.75276,-4.71024 -9.54095,-9.45355 -14.3764,-14.2335 42.0213,-30.5008 240.128,-120.951 290.554,-145.251 37.3677,-18.0071 64.0288,-23.8677 82.5768,-24.4288z"/>
     <path id="_461650424" class="fil10" d="M920.644 318.137c1.9252,0.90945 3.82914,1.86378 5.70945,2.86299 0.0437008,-0.0507874 0.0850394,-0.102756 0.129921,-0.153543 6.23741,-7.06418 21.4465,-3.82677 33.9685,7.23071 12.228,10.7976 17.3705,25.0571 11.7992,32.2996 17.3315,22.3725 30.2103,50.2819 35.7248,78.0036 6.99095,35.1437 2.33858,70.4138 -19.5095,95.1568 -21.8492,24.7441 -56.2725,33.7252 -92.0115,31.1374 -28.2154,-2.04331 -57.5292,-11.3835 -81.8871,-25.8331 -34.552,-26.2973 -31.891,-29.1638 -44.687,-40.6264 -1.22599,-1.74567 -2.41063,-3.51851 -3.55394,-5.31851l-5.4626 -8.60434 6.70512 -7.59449 137.154 -155.323 6.7063 -7.59331 9.21379 4.35591z"/>
     <path id="_461649032" class="fil0" d="M935.241 327.749c14.9528,9.19607 26.2146,20.7532 36.828,32.726 31.2898,36.8422 72.0945,62.7071 52.1044,88.4221 -59.4662,76.4989 -153.423,30.6248 -201.038,5.80985 -7.64174,-3.98268 112.106,-126.958 112.106,-126.958z"/>
     <path id="_461648672" class="fil11" d="M765.383 282.333c11.1768,-7.5567 23.061,-13.5165 35.289,-17.8417l35.2441 71.5489 -9.04961 -78.2363c7.03229,-1.12323 14.0929,-1.72677 21.1205,-1.79646 31.7138,-0.320079 62.7402,10.0878 87.3969,31.8614 1.39725,1.23307 3.08386,2.82284 5.04804,4.75276 1.69016,1.66181 3.33544,3.36614 4.93229,5.10355l-0.00826772 0.00708662 0.00590552 0.00590552 8.4189 9.01536 -8.11182 9.18662 -178.425 202.06 -8.12835 9.2067 -10.011 -7.29213 -0.152362 -0.111024 -0.00826772 0.011811c-1.89921,-1.35827 -3.763,-2.76024 -5.58308,-4.20355 -2.12953,-1.68898 -3.88465,-3.14173 -5.24528,-4.34174 -24.6567,-21.7736 -38.8252,-51.2717 -42.4335,-82.7823 -0.799607,-6.9815 -1.07599,-14.0634 -0.830316,-21.1807l77.3457 -0.329528 -73.9524 -26.4921c2.77914,-12.6697 7.22245,-25.1988 13.337,-37.2248l-14.0351 -12.3921 -10.1539 -8.96694 8.96694 -10.1551 35.8666 -40.6181 8.96694 -10.1551 10.1551 8.96694 14.0339 12.3933z"/>
     <path id="_461648864" class="fil11" d="M765.383 282.333c11.1768,-7.5567 23.061,-13.5165 35.289,-17.8417l35.2441 71.5489 -9.04961 -78.2363c7.03229,-1.12323 14.0929,-1.72677 21.1205,-1.79646 31.7138,-0.320079 62.7402,10.0878 87.3969,31.8614 1.39725,1.23307 3.08386,2.82284 5.04804,4.75276 1.69016,1.66181 3.33544,3.36614 4.93229,5.10355l-0.00826772 0.00708662 0.00590552 0.00590552 8.4189 9.01536 -8.11182 9.18662 -178.425 202.06 -8.12835 9.2067 -10.011 -7.29213 -0.152362 -0.111024 -0.00826772 0.011811c-1.89921,-1.35827 -3.763,-2.76024 -5.58308,-4.20355 -2.12953,-1.68898 -3.88465,-3.14173 -5.24528,-4.34174 -24.6567,-21.7736 -38.8252,-51.2717 -42.4335,-82.7823 -0.799607,-6.9815 -1.07599,-14.0634 -0.830316,-21.1807l77.3457 -0.329528 -73.9524 -26.4921c2.77914,-12.6697 7.22245,-25.1988 13.337,-37.2248l-14.0351 -12.3921 -10.1539 -8.96694 8.96694 -10.1551 35.8666 -40.6181 8.96694 -10.1551 10.1551 8.96694 14.0339 12.3933z"/>
     <polygon id="_461651264" class="fil12" points="728.547,520.89 943.748,277.182 964.057,295.116 748.857,538.824 "/>
     <path id="_461649584" class="fil13" d="M772.198 406.977l-68.5477 -24.5551c-1.45984,8.2252 -2.20158,16.5449 -2.2311,24.8575l70.7788 -0.302362z"/>
     <path id="_461648432" class="fil13" d="M803.205 269.633l32.7118 66.4075 -8.29489 -71.713c-8.25473,1.06063 -16.4268,2.83229 -24.4169,5.30552z"/>
     <path id="_461648504" class="fil13" d="M711.506 343.193c5.83465,-12.091 13.402,-23.5937 22.7244,-34.1504 9.32363,-10.5579 19.8012,-19.4906 31.076,-26.7768l-13.9571 -12.326 -10.1551 -8.96694 -8.96694 10.1551 -35.8666 40.6181 -8.96694 10.1551 10.1539 8.96694 13.9583 12.3248z"/>
     <path id="_461645648" class="fil1" d="M819.408 462.176c12.8445,-19.5685 26.0776,-1.26969 40.0725,8.28898 13.9961,9.55749 18.0555,20.7555 13.2154,27.8433 -4.84134,7.08662 -9.32009,4.11969 -23.315,-5.43898 -13.9961,-9.55867 -42.8162,-11.1248 -29.9729,-30.6933z"/>
     <g>
      <path id="_461645168" class="fil7" d="M1299.49 1683.4l58.8886 0c3.64725,17.3764 35.237,30.9567 73.6725,30.9567 37.4835,0 68.4544,-12.9165 73.3489,-29.6717 5.46024,2.38819 9.30001,7.84725 9.30001,14.1614l0 76.754c0,8.49686 -6.95079,15.4476 -15.4465,15.4476l-281.21 0c-8.49568,0 -15.4476,-6.95079 -15.4476,-15.4476l0 -19.1894c0,-36.7819 67.291,-73.0111 96.8942,-73.0111z"/>
      <rect id="_461645288" class="fil0" x="1199.65" y="1783" width="320.803" height="8.99596"/>
     </g>
    </g>
    <path id="_461675408" class="fil14" d="M1628.7 892.967c0,0 62.563,146.338 -60.7028,227.032 -65.4367,42.8374 -102.637,67.8225 -123.138,81.8363l24.9236 223.409 1.05118 5.01969 119.681 167.87 0.542126 1.61811c0.422835,1.18347 3.19961,3.24803 5.12008,4.93701 0.876379,0.77126 1.57559,1.46457 1.78937,1.96063 0.00708662,0.011811 0.011811,0.0248032 0.0165354,0.0377953 1.09961,2.56418 2.5063,4.94764 4.18229,7.1563 28.2898,37.2827 133.494,24.8256 144.02,-6.97914 0.236221,-0.715749 0.425197,-1.44095 0.564567,-2.17559 -0.874016,-11.126 -3.47244,-24.7205 -7.8189,-42.3426 -9.81497,-39.626 -91.0394,-193.465 -91.0394,-207.662 0,-90.3308 76.1693,-172.725 34.9725,-354.579 -13.6099,-60.0815 -32.0185,-83.8335 -54.1642,-107.139z"/>
   </g>
   <rect id="_461673176" class="fil15" width="2048" height="2048"/>
  </g>
 </g>
</svg>
